<svg xmlns="http://www.w3.org/2000/svg" width="64" height="64"><path d="M25.387 5.668c.16 0 .316 0 .48-.004q.65-.001 1.301.004c.453 0 .91 0 1.363-.004q1.15-.001 2.293.004c.883.004 1.762.004 2.645 0q1.136-.005 2.277-.004.675.006 1.356 0 .755-.001 1.511.004c.223 0 .223 0 .45-.004 1.171.016 2.039.324 2.914 1.117.449.489.734 1.028 1.03 1.617.056.114.114.223.173.34q1.065 2.12 2.125 4.246.194.382.386.77c.309.625.621 1.246.934 1.871h.227q2.711.005 5.43.016 1.312.007 2.624.007 1.271 0 2.535.012h.97q.676.001 1.355.008c.132 0 .265-.004.402-.004 1.117.016 2.164.395 2.957 1.211.492.73.89 1.348.89 2.246q.006.193.005.39v.887q.004.627.003 1.254.002.678.004 1.356c.004 1.09.004 2.18.008 3.27v.921q.007 2.872.008 5.738v1.665l.012 5.347q.007 2.748.007 5.496.001 1.542.008 3.082.005 1.313.004 2.625-.001.674.004 1.34.001.726-.004 1.457c.004.137.004.278.008.422-.012 1.094-.355 1.809-.918 2.723-.832.812-1.727 1.176-2.871 1.172-.098 0-.195.004-.297.004H58.27q-.997.004-1.993.003c-.715 0-1.43.004-2.144.004-1.727.004-3.453.004-5.184.008h-1.46q-4.547.007-9.087.008h-2.371l-8.476.012q-4.483.007-8.965.008-2.444 0-4.887.007-2.08.005-4.16.004-1.06-.001-2.121.004H4.773c-2.23.016-2.23.016-3.273-.703q-.169-.105-.344-.21c-.68-.7-1.172-1.556-1.172-2.536q-.005-.193-.004-.39v-.887q-.004-.627-.003-1.254-.002-.678-.004-1.356c-.004-1.09-.004-2.18-.008-3.27v-.921q-.007-2.872-.008-5.739v-1.664l-.012-5.347q-.006-2.748-.007-5.496-.001-1.542-.008-3.082-.005-1.312-.004-2.625.001-.674-.004-1.34-.001-.726.004-1.457c-.004-.137-.004-.278-.008-.422.012-1.094.355-1.809.918-2.723.656-.636 1.512-1.176 2.441-1.168h.305c.156.004.156.004.316.004h.32c.262.004.52.004.782.008l-.023-.45c-.04-1.16-.047-2.066.648-3.05q.105-.169.21-.344c1.138-1.105 2.302-1.187 3.798-1.199l.62-.012c1.22-.027 2.204-.039 3.247.68q.169.105.344.21c.636.657 1.176 1.513 1.168 2.442v.278c0 .113-.004.226-.004.343-.004.364-.004.727-.008 1.102.785-.043 1.566-.082 2.375-.125l.348-.715q.58-1.177 1.16-2.347l.699-1.426q.336-.69.676-1.375l.258-.524c1.086-2.242 2.257-3.59 4.87-3.57m-1.582 3.164q-.064.112-.13.23-.07.13-.148.266c-.074.149-.074.149-.152.297q-.084.156-.168.32c-.187.36-.367.723-.55 1.086-.063.133-.13.262-.2.399q-.205.41-.41.828c-.211.426-.426.847-.637 1.273q-.198.4-.402.805l-.192.387c-.086.175-.086.175-.175.351l-.157.317c-.117.21-.117.21-.109.359h23.25c-1.055-2.23-1.055-2.23-2.137-4.45l-.293-.597q-.211-.44-.43-.879-.063-.133-.128-.265c-.262-.524-.508-.864-1.012-1.184-.371-.117-.707-.14-1.094-.14-.18-.005-.18-.005-.363-.005h-.395q-.202 0-.418-.003h-1.367q-.475-.005-.949-.004c-.578 0-1.156-.004-1.738-.004q-1.277.001-2.555-.004-1.107-.005-2.215-.004c-.312 0-.625-.004-.941-.004a74 74 0 0 0-1.317 0q-.191-.005-.39-.004c-.781.004-1.504.027-2.078.629m-15.93 4.793c-.473.75-.375 1.168-.375 2.125h5c.05-1.168.05-1.168-.375-2.125-.71-.395-1.324-.434-2.125-.422-.11 0-.215-.004-.328-.004-.692.004-1.188.086-1.797.426m-5 5c-.473.73-.426 1.48-.41 2.328v.418l.012 1.309q.002.445.003.89.007 1.09.02 2.18 3.442.04 6.883.059 1.6.004 3.199.027 1.396.016 2.785.02.739 0 1.477.011.696.012 1.39.012.375 0 .75.012c.84-.008 1.305-.082 1.91-.692.165-.187.32-.383.481-.574 3.527-3.105 8.063-4.027 12.625-3.75 3.223.313 6.5 1.8 8.875 4l.168.223c.32.394.562.62 1.07.73.457.031.907.031 1.367.02q.259-.001.524.004c.473 0 .945-.008 1.418-.012q.744-.01 1.488-.008 1.401-.007 2.809-.02 1.6-.012 3.199-.019 3.291-.013 6.582-.043.013-1.314.02-2.621.003-.445.007-.895c.004-.425.008-.855.008-1.28.004-.134.004-.267.008-.403 0-.73-.012-1.301-.418-1.926-.629-.332-1.152-.43-1.863-.422-.145 0-.145 0-.29-.004-.324 0-.644 0-.968.004q-.346.001-.7-.004h-1.921c-.688.004-1.38 0-2.07 0h-8.79q-4.34-.001-8.687.004-3.961.001-7.93-.004H10.261c-.679 0-1.363.004-2.046 0q-.937-.001-1.875.004-.34.001-.68-.004-.46-.001-.922.004c-.133 0-.133 0-.27-.004-.624.008-1.046.137-1.593.426M28 23.875c-.14.047-.285.09-.43.137-3.441 1.226-6.246 3.652-7.87 6.93-1.481 3.12-1.919 6.859-.825 10.183.246.688.55 1.344.875 2l.18.371c1.558 3.059 4.492 5.461 7.738 6.543 2.668.836 5.656.938 8.332.086q.211-.069.43-.137c3.441-1.226 6.246-3.652 7.87-6.93 1.481-3.12 1.919-6.859.825-10.183a19 19 0 0 0-.875-2l-.18-.371c-1.558-3.059-4.492-5.461-7.738-6.543-2.668-.836-5.656-.938-8.332-.086M2.5 28.25v17.5h15.625c-.18-.45-.371-.875-.59-1.309a17.7 17.7 0 0 1-1.082-2.73c-.031-.098-.058-.195-.09-.297-.414-1.441-.539-2.855-.535-4.352v-.265c.012-2.871.692-5.508 2.137-8 .18-.277.18-.277.16-.547zm43.375 0c.18.45.371.875.59 1.309.437.89.797 1.78 1.082 2.73.031.098.058.195.09.297.414 1.441.539 2.855.535 4.352v.265c-.012 2.871-.692 5.508-2.137 8-.18.277-.18.277-.16.547H61.5v-17.5zM2.5 48.25q-.013 1.313-.02 2.621-.003.444-.007.895a140 140 0 0 0-.008 1.28q-.004.2-.008.403c0 .73.012 1.301.418 1.926.629.332 1.152.43 1.863.422.145 0 .145 0 .29.004q.484.001.968-.004.346-.001.7.004h1.921c.688-.004 1.38 0 2.07 0h8.79q4.34.001 8.687-.004 3.961-.001 7.93.004h17.645c.679 0 1.363-.004 2.046 0q.938.001 1.875-.004.34-.001.68.004.46.001.922-.004c.133 0 .133 0 .27.004.624-.008 1.046-.137 1.593-.426.473-.73.426-1.48.41-2.328v-.418l-.012-1.309q-.002-.445-.003-.89-.007-1.09-.02-2.18c-2.293-.027-4.59-.047-6.883-.059a291 291 0 0 1-3.199-.027c-.93-.012-1.86-.016-2.785-.02q-.738 0-1.477-.011a83 83 0 0 0-1.39-.012q-.375 0-.75-.012c-.84.008-1.305.082-1.91.692-.165.187-.32.383-.481.574-3.527 3.105-8.062 4.027-12.625 3.75-3.223-.312-6.5-1.8-8.875-4l-.168-.223c-.32-.394-.562-.62-1.07-.73a15 15 0 0 0-1.367-.02q-.259.001-.524-.004c-.473 0-.945.008-1.418.012-.496.008-.992.008-1.488.008q-1.401.007-2.809.02-1.6.012-3.199.019-3.291.013-6.582.043m25.988-37.582c.086 0 .168 0 .258-.004q.416-.001.832.004c.195 0 .387-.004.582-.004q.607-.001 1.215.004.78.006 1.559 0 .599-.006 1.199 0 .287.001.574-.004c.27 0 .535 0 .805.004.152 0 .304.004.46.004.516.101.704.3 1.028.703.082.313.082.313.078.625.004.156.004.156.004.313-.121.457-.348.64-.707.937-.402.078-.402.078-.863.082-.13 0-.13 0-.258.004q-.416.001-.832-.004c-.195 0-.387.004-.582.004q-.607.001-1.215-.004-.78-.006-1.559 0-.599.006-1.199 0-.287-.001-.574.004c-.27 0-.535 0-.805-.004-.152 0-.304-.004-.46-.004-.516-.101-.704-.3-1.028-.703-.082-.312-.082-.312-.078-.625q-.002-.154-.004-.312c.215-.817.797-1.016 1.57-1.02M50.875 20.75c.39.234.39.234.625.625.125.629.098 1.09-.234 1.64-.551.333-1.012.36-1.641.235-.39-.234-.39-.234-.625-.625-.125-.629-.098-1.09.234-1.64.551-.333 1.012-.36 1.641-.235m4.61-.082q.243-.002.5-.004c.124.004.124.004.253.004q.392.004.778-.004c.25 0 .25 0 .5.004h.453c.52.105.703.3 1.031.707.082.313.082.313.078.625 0 .102.004.207.004.313-.121.457-.348.64-.707.937-.406.082-.406.082-.86.082q-.243.002-.5.004-.123-.002-.253-.004-.392-.004-.778.004c-.25 0-.25 0-.5-.004h-.453c-.52-.105-.703-.3-1.031-.707-.082-.312-.082-.312-.078-.625 0-.102-.004-.207-.004-.312.215-.813.793-1.016 1.566-1.02M39.25 28.25l.27.215c1.964 1.617 3.48 4.37 3.73 6.91.215 3.344-.34 6.234-2.5 8.875q-.104.135-.215.27c-1.617 1.964-4.37 3.48-6.91 3.73-3.344.215-6.234-.34-8.875-2.5l-.27-.215c-1.964-1.617-3.48-4.37-3.73-6.91-.215-3.344.34-6.234 2.5-8.875q.104-.135.215-.27c3.867-4.695 11.223-4.968 15.785-1.23m-13.625 2.875c-.082.078-.164.16-.25.238-1.465 1.492-2.027 3.614-2.047 5.637.024 2.355.785 4.387 2.469 6.059l.328.316c.078.082.16.164.238.25 1.492 1.465 3.614 2.027 5.637 2.047 2.355-.024 4.387-.785 6.059-2.469l.316-.328q.122-.119.25-.238c1.465-1.492 2.027-3.614 2.047-5.637-.024-2.355-.785-4.387-2.469-6.059l-.328-.316q-.119-.122-.238-.25c-1.492-1.465-3.614-2.027-5.637-2.047-2.582.024-4.598.953-6.375 2.797m6.078-.43c.16-.004.317-.011.48-.015.555.09.735.25 1.067.695.082.313.082.313.078.625 0 .102.004.207.004.313-.121.46-.336.644-.707.937-.426.117-.426.117-.898.18-.989.164-1.801.441-2.461 1.222-.493.711-.766 1.36-.868 2.223-.078.477-.14.738-.398 1.156-.457.27-.79.293-1.312.301-.461-.121-.649-.332-.938-.707-.297-1.586.234-3.117 1.121-4.426 1.184-1.511 2.895-2.469 4.832-2.504m0 0" style="stroke:none;fill-rule:nonzero;fill:#000;fill-opacity:1"/></svg>