<svg xmlns="http://www.w3.org/2000/svg" width="64" height="64"><path d="M25.387 5.668c.16 0 .316 0 .48-.004q.65-.001 1.301.004c.453 0 .91 0 1.363-.004q1.15-.001 2.293.004c.883.004 1.762.004 2.645 0q1.136-.005 2.277-.004.675.006 1.356 0 .755-.001 1.511.004c.223 0 .223 0 .45-.004 1.171.016 2.039.324 2.914 1.117.449.489.734 1.028 1.03 1.617.056.114.114.223.173.34q1.065 2.12 2.125 4.246.194.382.386.77c.309.625.621 1.246.934 1.871h.227q2.711.005 5.43.016 1.312.007 2.624.007 1.271 0 2.535.012h.97q.676.001 1.355.008c.132 0 .265-.004.402-.004 1.117.016 2.164.395 2.957 1.211.492.73.89 1.348.89 2.246q.006.193.005.39v.887q.004.627.003 1.254.002.678.004 1.356c.004 1.09.004 2.18.008 3.27v.921q.007 2.872.008 5.738v1.665l.012 5.347q.007 2.748.007 5.496.001 1.542.008 3.082.005 1.313.004 2.625-.001.674.004 1.34.001.726-.004 1.457c.004.137.004.278.008.422-.012 1.094-.355 1.809-.918 2.723-.832.812-1.727 1.176-2.871 1.172-.098 0-.195.004-.297.004H58.27q-.997.004-1.993.003c-.715 0-1.43.004-2.144.004-1.727.004-3.453.004-5.184.008h-1.46q-4.547.007-9.087.008h-2.371l-8.476.012q-4.483.007-8.965.008-2.444 0-4.887.007-2.08.005-4.16.004-1.06-.001-2.121.004H4.773c-2.23.016-2.23.016-3.273-.703q-.169-.105-.344-.21c-.68-.7-1.172-1.556-1.172-2.536q-.005-.193-.004-.39v-.887q-.004-.627-.003-1.254-.002-.678-.004-1.356c-.004-1.09-.004-2.18-.008-3.27v-.921q-.007-2.872-.008-5.739v-1.664l-.012-5.347q-.006-2.748-.007-5.496-.001-1.542-.008-3.082-.005-1.312-.004-2.625.001-.674-.004-1.34-.001-.726.004-1.457c-.004-.137-.004-.278-.008-.422.012-1.094.355-1.809.918-2.723.656-.636 1.512-1.176 2.441-1.168h.305c.156.004.156.004.316.004h.32c.262.004.52.004.782.008l-.023-.45c-.04-1.16-.047-2.066.648-3.05q.105-.169.21-.344c1.138-1.105 2.302-1.187 3.798-1.199l.62-.012c1.22-.027 2.204-.039 3.247.68q.169.105.344.21c.636.657 1.176 1.513 1.168 2.442v.278c0 .113-.004.226-.004.343-.004.364-.004.727-.008 1.102.785-.043 1.566-.082 2.375-.125l.348-.715q.58-1.177 1.16-2.347l.699-1.426q.336-.69.676-1.375l.258-.524c1.086-2.242 2.257-3.59 4.87-3.57m0 0" style="stroke:none;fill-rule:nonzero;fill:#000;fill-opacity:1"/><path d="M40.316 26.008c2.48 1.933 4.215 4.46 5.059 7.492q.058.21.121.426c.844 3.476.117 7.242-1.715 10.281-2.148 3.293-5.27 5.469-9.097 6.367-.887.18-1.75.219-2.653.215-.144 0-.285 0-.433-.004-1.078-.012-2.059-.101-3.098-.41q-.122-.034-.25-.074c-2.137-.64-3.941-1.727-5.625-3.176l-.281-.242c-1.68-1.57-2.782-3.64-3.516-5.79-.031-.085-.058-.175-.09-.261-.41-1.27-.535-2.547-.527-3.871q-.001-.204.004-.414c.015-1.059.11-2.024.41-3.047q.034-.122.074-.25c1.106-3.695 3.582-6.68 6.957-8.54 4.684-2.468 10.477-1.866 14.66 1.298m0 0" style="stroke:none;fill-rule:nonzero;fill:#55535a;fill-opacity:1"/><path d="M2.5 48.25c2.313-.027 4.621-.047 6.934-.059q1.609-.005 3.218-.027c.938-.012 1.871-.016 2.809-.02q.742 0 1.484-.011c.47-.008.934-.012 1.403-.012q.374 0 .754-.012c.84.008 1.308.078 1.918.688q.24.286.48.578c.309.27.633.508.969.742q.135.093.27.192c3.679 2.488 8.027 3.277 12.386 2.566 2.535-.488 6.148-1.852 7.8-3.977.317-.398.56-.617 1.063-.726.461-.031.914-.031 1.375-.02q.269.001.532-.004c.476 0 .953.008 1.43.012.495.008.995.008 1.495.008q1.415.007 2.828.02 1.612.012 3.223.019c2.211.008 4.418.023 6.629.043q.024 1.395.035 2.79l.012.948q.011.681.016 1.364c0 .14.003.28.007.43 0 1.093 0 1.093-.37 1.554-.505.45-.852.434-1.497.43h-.293a41 41 0 0 1-.98 0q-.352.005-.707.004h-1.946q-1.053 0-2.101.003h-4.59c-.957 0-1.91.004-2.867.004-2.64 0-5.285 0-7.926.004h-2.3160000000000003q-4.15-.001-8.293.004-4.383.005-8.766.004c-1.594 0-3.188.004-4.781.004q-2.033.005-4.067.004-1.041-.006-2.078 0h-2.59c-.312.004-.62 0-.933 0-.137 0-.137 0-.274.004-.547-.008-.883-.098-1.32-.426-.367-.379-.422-.64-.418-1.164v-.402c.004-.145.004-.286.008-.434v-.441l.012-1.403.003-.949q.007-1.166.02-2.332M4.469 18.203q.14-.002.293-.004h1.6829999999999998q.973-.006 1.946 0 1.049-.002 2.097-.004 2.055-.005 4.11-.004h3.34q.48 0 .96-.003h9.274q4.01.001 8.023-.004 4.511-.007 9.016-.008c1.59 0 3.184 0 4.773-.004q2.033-.006 4.067 0h2.074q.95-.006 1.898 0 .341.001.688-.004.465-.001.93.004c.136-.004.136-.004.273-.004.7.012.992.223 1.461.707.125.375.14.621.14 1.016v.394q-.004.205-.003.422v.438c0 .46-.004.918-.004 1.378v.934c-.004.766-.004 1.527-.008 2.293q-3.466.04-6.934.059c-1.074.003-2.144.011-3.218.027-.938.012-1.871.016-2.809.02-.496 0-.988.003-1.484.011-.47.008-.934.012-1.403.012q-.374 0-.754.012c-.84-.008-1.308-.078-1.918-.688-.16-.191-.32-.387-.48-.578-.3-.25-.613-.473-.937-.687l-.258-.172c-3.848-2.54-8.117-3.375-12.68-2.641-.687.148-1.344.375-2 .625q-.193.07-.39.145a17.4 17.4 0 0 0-4.047 2.238l-.247.183c-.468.356-.468.356-.867.786-.316.398-.558.617-1.062.726-.461.031-.914.031-1.375.02q-.269-.001-.532.004c-.476 0-.953-.008-1.43-.012q-.744-.01-1.495-.008-1.415-.007-2.828-.02-1.612-.012-3.223-.019c-2.211-.008-4.418-.023-6.629-.043q-.013-1.371-.02-2.742c-.003-.313-.003-.621-.007-.934q-.007-.67-.008-1.34-.004-.21-.008-.422v-.394q.001-.168-.004-.348c.074-.515.274-.832.688-1.148.449-.215.84-.223 1.328-.219m0 0" style="stroke:none;fill-rule:nonzero;fill:#cbedfe;fill-opacity:1"/><path d="M45.75 28.25H61.5v17.5H45.75c.156-.39.305-.746.492-1.113a20.2 20.2 0 0 0 1.633-4.512c.035-.137.066-.273.102-.418.398-2.05.277-4.312-.227-6.332-.035-.152-.066-.305-.102-.46-.332-1.407-.855-2.888-1.68-4.09-.218-.325-.218-.325-.218-.575M2.5 28.25h15.75l-1.125 2.375c-1.336 3.148-1.695 6.664-.875 10 .027.125.027.125.059.254.359 1.512 1 2.863 1.699 4.246.117.25.117.25.242.625H2.5zm0 0" style="stroke:none;fill-rule:nonzero;fill:#f15977;fill-opacity:1"/><path d="m34.625 28.625.367.133c2.371.918 4 2.523 5.102 4.797.96 2.254.883 4.566 0 6.836-1.067 2.398-2.742 3.875-5.117 4.906a8.77 8.77 0 0 1-6.59-.262 9.2 9.2 0 0 1-2.637-1.91l-.262-.25c-1.613-1.64-2.277-3.984-2.277-6.23.043-2.47 1.187-4.461 2.914-6.145.07-.074.145-.148.215-.223 2.066-1.98 5.633-2.683 8.285-1.652m0 0" style="stroke:none;fill-rule:nonzero;fill:#fdfdfd;fill-opacity:1"/><path d="M39.125 28.25q.152.116.305.238c1.847 1.532 3.03 3.703 3.57 6.012l.086.3c.668 2.618.008 5.634-1.344 7.927-.304.484-.64.945-.992 1.398q-.116.152-.238.305C38.98 46.277 36.797 47.414 34.5 48l-.29.086c-2.687.684-5.573-.059-7.944-1.344-2.73-1.656-4.48-4.16-5.266-7.242a8 8 0 0 0-.086-.29c-.684-2.687.059-5.581 1.352-7.952 1.539-2.535 3.941-4.438 6.836-5.164.132-.032.261-.063.398-.094l.3-.086c3.262-.832 6.747.34 9.325 2.336M25.75 30.875c-.086.086-.172.168-.262.254-1.578 1.625-2.32 3.816-2.289 6.05.094 2.5 1.2 4.77 3.012 6.47.969.855 2.195 1.453 3.414 1.851l.246.086c2.211.621 4.637.023 6.606-1.023 2.097-1.243 3.43-3.215 4.125-5.524.52-2.375.082-4.766-1.2-6.816-.437-.641-.976-1.184-1.527-1.723l-.21-.223c-.997-.972-2.583-1.59-3.915-1.902-.078-.02-.152-.043-.234-.062-2.825-.645-5.805.546-7.766 2.562m0 0" style="stroke:none;fill-rule:nonzero;fill:#010101;fill-opacity:1"/><path d="M25.848 8.168q.222.001.449-.004.603-.001 1.207.004.638.001 1.27-.004 1.065-.001 2.132.004 1.23.006 2.461 0 1.056-.005 2.113-.004.633.006 1.266 0 .704-.001 1.406.004.207.001.418-.004c1.051.016 1.051.016 1.496.36.297.34.504.636.704 1.039.066.136.136.269.203.41q.104.216.215.437.111.222.222.45.291.586.582 1.18.235.483.477.968L43.453 15c.059.117.113.238.172.36.125.265.125.265.125.39h-23.5c1.488-3.145 1.488-3.145 2.129-4.441.098-.2.195-.395.289-.594.145-.293.285-.586.43-.88l.129-.265q.06-.122.125-.25.053-.104.105-.215c.68-.93 1.293-.945 2.39-.937m0 0" style="stroke:none;fill-rule:nonzero;fill:#cbecfd;fill-opacity:1"/><path d="M32.82 31c.325.398.442.621.465 1.125-.05.355-.207.602-.453.852-.441.316-.965.359-1.48.441-1 .18-1.778.637-2.399 1.45-.312.503-.426 1.015-.523 1.593-.207 1.203-.207 1.203-.805 1.664-.492.148-.746.18-1.219-.023-.351-.286-.617-.536-.71-.989-.005-1.746.652-3.289 1.82-4.574C28.664 31.473 31.25 29.9 32.82 31m0 0" style="stroke:none;fill-rule:nonzero;fill:#040404;fill-opacity:1"/><path d="M28.777 10.727c.16-.004.32-.004.485-.008q.263.001.527-.004h.266q.703-.007 1.402-.008l1.16-.012c.469-.004.934-.008 1.403-.008.175-.003.355-.003.53-.007 1.567-.024 1.567-.024 2.055.37.32.387.403.587.434 1.075-.074.46-.332.684-.664 1-.344.172-.629.145-1.016.145q-.239.002-.484.003h-.531q-.27.005-.54.004c-.378 0-.757.004-1.136.004q-.727.001-1.453.008h-1.117c-.176 0-.356.004-.535.004q-.375.006-.75 0c-.215.004-.215.004-.43.004-.531-.067-.852-.281-1.242-.633-.215-.441-.157-.824-.016-1.289.469-.61.918-.64 1.652-.648m0 0" style="stroke:none;fill-rule:nonzero;fill:#000101;fill-opacity:1"/><path d="m10.055 13.188.425-.012c1.145 0 1.145 0 1.61.367.625.727.41 1.09.41 2.207h-5c0-1.5 0-1.5.375-2.125.676-.516 1.363-.437 2.18-.437m0 0" style="stroke:none;fill-rule:nonzero;fill:#cbedfd;fill-opacity:1"/><path d="M56.54 20.703q.209-.005.425-.015c1.168-.012 1.168-.012 1.625.347.332.395.418.59.45 1.09-.075.46-.333.684-.665 1-.523.262-1.21.152-1.79.156l-.433.008h-.418q-.187.005-.379.004c-.511-.063-.835-.29-1.214-.629-.215-.441-.157-.824-.016-1.289.617-.805 1.484-.66 2.414-.672m0 0" style="stroke:none;fill-rule:nonzero;fill:#020202;fill-opacity:1"/><path d="M50.875 20.875c.406.266.535.523.633.984.035.442-.02.532-.258.946-.441.379-.672.457-1.25.445-.453-.195-.781-.43-1-.875-.027-.52.04-.89.36-1.305.519-.383.906-.336 1.515-.195m0 0" style="stroke:none;fill-rule:nonzero;fill:#040505;fill-opacity:1"/></svg>