<svg xmlns="http://www.w3.org/2000/svg" width="32" height="32"><path d="M19.625 2.875c.625.5 1.176 1.102 1.742 1.672.11.11.227.219.336.336q.458.45.914.906.28.283.567.57a301 301 0 0 1 1.68 1.68q.05.045.1.102.102.098.208.203l.101.101q.819.82 1.649 1.64.843.849 1.691 1.696c.317.313.633.633.95.946l.89.89.328.328.446.446.132.132c.442.446.649.829.657 1.461-.016 1.188-1.086 1.91-1.875 2.696-.11.11-.22.226-.336.336q-.45.456-.907.914l-.57.566a301 301 0 0 1-1.68 1.68 1 1 0 0 1-.101.101l-.203.207-.102.102q-.82.819-1.64 1.648-.849.843-1.696 1.692c-.312.316-.633.633-.945.949l-.89.89-.329.329-.445.445-.133.133c-.445.441-.828.648-1.46.656-.75-.012-1.087-.281-1.602-.793a20 20 0 0 0-.305-.285c-.524-.488-.93-.977-.961-1.73.05-.934.742-1.48 1.367-2.106q.093-.094.192-.187.253-.258.511-.516l.54-.54c.335-.335.679-.671 1.015-1.01.387-.388.773-.77 1.156-1.161q1.195-1.185 2.383-2.375h-.137c-2.66-.008-5.316-.012-7.976-.016q-.479-.002-.957-.004h-.196q-1.54-.003-3.086-.007-1.58-.005-3.168-.004c-.652-.004-1.3-.008-1.957-.008h-1.34q-.386-.005-.773-.004-.357.001-.707-.004h-.375c-.691 0-1.297-.039-1.828-.515-.367-.446-.52-.844-.523-1.415v-.16q.001-.168-.004-.332c0-.164-.004-.336-.004-.5-.008-.64.008-1.172.469-1.664.609-.586 1.304-.562 2.109-.562q.13.001.265-.004h.723q.391-.005.781-.004h1.356q.973-.007 1.953-.008c1.059 0 2.117-.008 3.172-.008 1.031 0 2.058-.008 3.086-.008h.191q.477 0 .953-.003 3.956-.007 7.91-.02c-.03-.031-.07-.066-.101-.102-.824-.82-1.648-1.636-2.469-2.457q-.598-.592-1.195-1.191-.522-.515-1.04-1.031c-.187-.188-.366-.367-.554-.551a65 65 0 0 1-.515-.52q-.099-.093-.196-.187c-.547-.54-.988-1.043-1.02-1.836l-.011-.195c.11-.692.539-1.176 1.031-1.645q.083-.076.164-.16c.692-.68 1.64-1.2 2.594-.625m0 0" style="stroke:none;fill-rule:nonzero;fill:#000;fill-opacity:1"/></svg>